<svg width="69" height="74" viewBox="0 0 69 74" fill="none" xmlns="http://www.w3.org/2000/svg">
<path d="M59.9295 58.8469C56.1596 63.0958 51.4447 66.4001 46.1644 68.4939C43.5956 69.5747 40.9172 70.3738 38.1761 70.8771C35.434 71.3652 32.6454 71.5411 29.8637 71.4014C25.7864 71.2851 21.7645 70.4258 17.9957 68.8657C11.3323 65.9851 5.95895 60.7576 2.89607 54.176C-1.37148 44.734 -0.900929 33.8264 4.16391 24.7871C5.71173 22.0265 7.76141 19.5791 10.2076 17.5709C10.9828 16.9156 11.7943 16.3045 12.6384 15.7406C13.4963 15.1877 14.3542 14.7016 15.2312 14.2345C16.9921 13.3029 18.8329 12.5308 20.7315 11.9276C21.702 11.625 22.6885 11.3768 23.6866 11.1841C24.7244 11.0273 25.7734 10.9571 26.8228 10.9744C27.9239 10.9911 29.0175 11.1579 30.0734 11.47C31.1717 11.847 32.1694 12.4697 32.9904 13.2908C33.381 13.6419 33.6789 14.0839 33.8579 14.5777C33.9627 14.8922 33.9341 15.0829 33.8007 15.1687C33.6672 15.2545 32.8474 15.0543 31.8274 14.9494C29.6254 14.7683 27.0612 15.9504 23.515 16.9799C21.8798 17.4214 20.2852 18.0019 18.7487 18.7148C17.2143 19.3888 15.757 20.2262 14.4019 21.2123C11.7612 23.1721 9.58666 25.6917 8.03413 28.5906C4.80076 34.7877 3.9691 41.9603 5.69865 48.7329C6.21257 50.8002 7.02502 52.7815 8.11039 54.6145C9.25619 56.443 10.6376 58.1128 12.2189 59.581C15.4694 62.5244 19.4001 64.6142 23.658 65.6627C32.9809 68.1984 43.4572 65.5388 51.15 59.6286C55.9407 56.0058 59.4182 50.9184 61.0543 45.1391C63.5088 36.2276 61.8778 26.6863 56.6026 19.0961C52.5558 13.4808 46.619 9.51389 39.8825 7.92393L37.7567 7.52356C37.0322 7.38057 36.2887 7.36151 35.5547 7.25665C30.0448 6.63703 28.2241 6.45591 26.7656 5.06416C26.4253 4.79051 26.1065 4.49092 25.8124 4.16809C25.4406 3.65333 25.8124 3.05278 26.9086 2.43316C28.5677 1.59966 30.3757 1.10391 32.2278 0.97468C39.8054 0.393164 47.349 2.46949 53.5617 6.84675C59.9307 11.5758 64.556 18.2792 66.7167 25.9119C67.5465 28.7025 68.0362 31.5832 68.1751 34.4912C68.2229 35.2213 68.2229 35.9537 68.1751 36.6837C68.1751 37.4082 68.1751 38.1422 68.1084 38.8667C68.0003 40.329 67.8061 41.7836 67.5269 43.2231C67.2501 44.6638 66.8873 46.0868 66.4402 47.4841C65.969 48.8759 65.4151 50.2383 64.7816 51.5641C63.5264 54.2089 61.9234 56.6743 60.0153 58.8946L59.9295 58.8469Z" fill="#9747FF"/>
<path d="M32.9587 53.1592C30.0326 53.1592 26.6435 52.6406 22.7915 51.6035C23.0137 47.9737 23.2545 45.2884 23.5138 43.5476L26.6806 42.9365L30.1808 46.6589C31.403 47.0292 32.7735 47.2144 34.2921 47.2144C35.144 47.2144 35.8107 47.1589 36.2922 47.0478C36.4033 46.7515 36.4588 46.344 36.4588 45.8255C36.4588 45.381 36.3477 45.0106 36.1255 44.7143C35.9403 44.418 35.4958 44.0661 34.7921 43.6587C34.0883 43.2513 32.8661 42.6216 31.1252 41.7697C28.94 40.6215 27.2732 39.603 26.125 38.714C24.9768 37.7881 24.1434 36.8436 23.6249 35.8805C23.1434 34.9175 22.9026 33.7693 22.9026 32.4359C22.9026 29.4728 23.9953 27.1209 26.1806 25.38C28.4029 23.6392 31.403 22.7688 35.181 22.7688C36.7366 22.7688 38.3663 22.954 40.0701 23.3244C41.8109 23.6577 43.3666 24.1207 44.737 24.7133C44.737 27.1209 44.5703 29.8062 44.237 32.7693L41.348 33.2138L37.6256 29.2136C36.6626 28.9172 35.2551 28.7691 33.4031 28.7691C33.1068 28.7691 32.5142 28.8061 31.6253 28.8802C31.5142 29.1024 31.4586 29.4543 31.4586 29.9358C31.4586 30.4544 31.6068 30.9173 31.9031 31.3248C32.1994 31.6952 32.7179 32.1211 33.4587 32.6026C34.2365 33.0471 35.4588 33.6953 37.1255 34.5472C39.5701 35.7324 41.4035 36.7695 42.6258 37.6584C43.8851 38.5103 44.7555 39.3807 45.237 40.2697C45.7556 41.1586 46.0149 42.2327 46.0149 43.492C46.0149 46.5292 44.8481 48.8997 42.5147 50.6035C40.2183 52.3073 37.0329 53.1592 32.9587 53.1592Z" fill="#09090B"/>
</svg>
