<svg width="101" height="101" viewBox="0 0 101 101" fill="none" xmlns="http://www.w3.org/2000/svg">
<path fill-rule="evenodd" clip-rule="evenodd" d="M18.7488 0.828125H83.135C92.9695 0.828125 100.942 8.80055 100.942 18.635V83.0212C100.942 92.8557 92.9695 100.828 83.135 100.828H18.7488C8.91431 100.828 0.941895 92.8557 0.941895 83.0212V18.635C0.941895 8.80055 8.91431 0.828125 18.7488 0.828125Z" fill="#316BFF"/>
<path d="M48.9088 27.7058H71.5169C72.9666 27.7058 74.1418 28.8809 74.1418 30.3306V34.4015C74.1418 35.8512 72.9666 37.0264 71.5169 37.0264H48.9088C47.4591 37.0264 46.284 35.8512 46.284 34.4015V30.3306C46.284 28.8809 47.4591 27.7058 48.9088 27.7058Z" fill="white"/>
<path d="M48.9304 46.2706H66.8768C68.3265 46.2706 69.5017 47.4458 69.5017 48.8955V52.9481C69.5017 54.3978 68.3265 55.5729 66.8768 55.5729H48.9304C47.4807 55.5729 46.3055 54.3978 46.3055 52.9481V48.8955C46.3055 47.4458 47.4807 46.2706 48.9304 46.2706Z" fill="white"/>
<path d="M74.156 67.4466V71.5045C74.156 72.9534 72.98 74.1293 71.5311 74.1293H38.0088C32.4903 73.7765 28.0806 69.3668 27.7278 63.8483V30.1517C27.7278 28.7028 28.9038 27.5269 30.3527 27.5269H34.3729C35.8219 27.5269 36.9978 28.7028 36.9978 30.1517V58.0948C36.9978 61.8662 39.7097 64.8217 43.4811 64.8217H71.5311C72.98 64.8217 74.156 65.9976 74.156 67.4466Z" fill="white"/>
</svg>
